<svg width="1440" height="1024" viewBox="0 0 1440 1024" fill="none" xmlns="http://www.w3.org/2000/svg">
<rect width="1440" height="1024" fill="url(#paint0_linear_15_47)"/>
<path d="M1026 221C1026 241.435 1009.43 258 989 258C968.565 258 952 241.435 952 221C952 200.565 968.565 184 989 184C1009.43 184 1026 200.565 1026 221Z" fill="#361E70" fill-opacity="0.7"/>
<circle cx="204" cy="228" r="37" fill="#361E70" fill-opacity="0.7"/>
<circle cx="354" cy="154" r="37" fill="#361E70" fill-opacity="0.7"/>
<circle cx="293" cy="375" r="37" fill="#361E70" fill-opacity="0.7"/>
<path d="M545 215C545 235.435 528.435 252 508 252C487.565 252 471 235.435 471 215C471 194.565 487.565 178 508 178C528.435 178 545 194.565 545 215Z" fill="#361E70" fill-opacity="0.7"/>
<path d="M638.5 90C638.5 110.435 621.935 127 601.5 127C581.065 127 564.5 110.435 564.5 90C564.5 69.5655 581.065 53 601.5 53C621.935 53 638.5 69.5655 638.5 90Z" fill="#361E70" fill-opacity="0.7"/>
<path d="M955 112C955 132.435 938.435 149 918 149C897.565 149 881 132.435 881 112C881 91.5655 897.565 75 918 75C938.435 75 955 91.5655 955 112Z" fill="#361E70" fill-opacity="0.7"/>
<circle cx="565" cy="338" r="37" fill="#361E70" fill-opacity="0.7"/>
<path d="M1226 186C1226 206.435 1209.43 223 1189 223C1168.57 223 1152 206.435 1152 186C1152 165.565 1168.57 149 1189 149C1209.43 149 1226 165.565 1226 186Z" fill="#361E70" fill-opacity="0.7"/>
<circle cx="1021" cy="364" r="37" fill="#361E70" fill-opacity="0.7"/>
<path d="M1355 141C1355 161.435 1338.43 178 1318 178C1297.57 178 1281 161.435 1281 141C1281 120.565 1297.57 104 1318 104C1338.43 104 1355 120.565 1355 141Z" fill="#361E70" fill-opacity="0.7"/>
<circle cx="1197" cy="375" r="37" fill="#361E70" fill-opacity="0.7"/>
<defs>
<linearGradient id="paint0_linear_15_47" x1="720" y1="0" x2="720" y2="1024" gradientUnits="userSpaceOnUse">
<stop stop-color="#32167C"/>
<stop offset="0.546875" stop-color="#1F1147"/>
</linearGradient>
</defs>
</svg>

